<svg xmlns="http://www.w3.org/2000/svg" xmlns:xlink="http://www.w3.org/1999/xlink" width="1080" zoomAndPan="magnify" viewBox="0 0 810 809.999993" height="1080" preserveAspectRatio="xMidYMid meet" version="1.0"><defs><g/><clipPath id="915abb9f4c"><path d="M 43.539062 10 L 767.253906 10 L 767.253906 800 L 43.539062 800 Z M 43.539062 10 " clip-rule="nonzero"/></clipPath><clipPath id="c34c957f34"><path d="M 43.539062 281.726562 L 43.539062 528.152344 C 43.539062 581.019531 71.792969 629.890625 117.640625 656.328125 L 331.316406 779.53125 C 377.164062 805.964844 433.667969 805.964844 479.515625 779.53125 L 693.195312 656.328125 C 739.042969 629.890625 767.292969 581.019531 767.292969 528.152344 L 767.292969 281.726562 C 767.292969 228.855469 739.042969 179.984375 693.195312 153.550781 L 479.515625 30.347656 C 433.667969 3.910156 377.164062 3.910156 331.316406 30.347656 L 117.640625 153.550781 C 71.792969 180.003906 43.539062 228.855469 43.539062 281.726562 Z M 43.539062 281.726562 " clip-rule="nonzero"/></clipPath></defs><rect x="-81" width="972" fill="#ffffff" y="-80.999999" height="971.999992" fill-opacity="1"/><rect x="-81" width="972" fill="#fbcccc" y="-80.999999" height="971.999992" fill-opacity="1"/><g clip-path="url(#915abb9f4c)"><g clip-path="url(#c34c957f34)"><path fill="#36699f" d="M 43.539062 803.828125 L 43.539062 6.261719 L 767.253906 6.261719 L 767.253906 803.828125 Z M 43.539062 803.828125 " fill-opacity="1" fill-rule="nonzero"/></g></g><g fill="#ff00ff" fill-opacity="1"><g transform="translate(206.286701, 640.128064)"><g><path d="M 197.648438 0.652344 C 345.722656 0 407.039062 -73.710938 407.039062 -232.21875 C 407.039062 -391.382812 345.722656 -452.046875 197.648438 -452.046875 L 105.671875 -452.046875 C 69.796875 -452.046875 50.226562 -431.824219 50.226562 -393.992188 C 50.226562 -196.34375 49.574219 -113.5 48.921875 -54.140625 C 48.921875 -18.917969 68.492188 0 104.367188 0 Z M 171.554688 -90.019531 C 170.902344 -112.195312 170.902344 -136.332031 170.902344 -159.8125 C 170.902344 -271.359375 170.902344 -317.019531 171.554688 -362.027344 L 195.039062 -362.027344 C 265.488281 -362.027344 286.359375 -326.152344 286.359375 -226.347656 C 286.359375 -138.941406 262.878906 -90.019531 195.039062 -90.019531 Z M 171.554688 -90.019531 "/></g></g></g><g fill="#00ffff" fill-opacity="1"><g transform="translate(181.824779, 640.128064)"><g><path d="M 197.648438 0.652344 C 345.722656 0 407.039062 -73.710938 407.039062 -232.21875 C 407.039062 -391.382812 345.722656 -452.046875 197.648438 -452.046875 L 105.671875 -452.046875 C 69.796875 -452.046875 50.226562 -431.824219 50.226562 -393.992188 C 50.226562 -196.34375 49.574219 -113.5 48.921875 -54.140625 C 48.921875 -18.917969 68.492188 0 104.367188 0 Z M 171.554688 -90.019531 C 170.902344 -112.195312 170.902344 -136.332031 170.902344 -159.8125 C 170.902344 -271.359375 170.902344 -317.019531 171.554688 -362.027344 L 195.039062 -362.027344 C 265.488281 -362.027344 286.359375 -326.152344 286.359375 -226.347656 C 286.359375 -138.941406 262.878906 -90.019531 195.039062 -90.019531 Z M 171.554688 -90.019531 "/></g></g></g><g fill="#fbcccc" fill-opacity="1"><g transform="translate(194.05574, 640.128064)"><g><path d="M 197.648438 0.652344 C 345.722656 0 407.039062 -73.710938 407.039062 -232.21875 C 407.039062 -391.382812 345.722656 -452.046875 197.648438 -452.046875 L 105.671875 -452.046875 C 69.796875 -452.046875 50.226562 -431.824219 50.226562 -393.992188 C 50.226562 -196.34375 49.574219 -113.5 48.921875 -54.140625 C 48.921875 -18.917969 68.492188 0 104.367188 0 Z M 171.554688 -90.019531 C 170.902344 -112.195312 170.902344 -136.332031 170.902344 -159.8125 C 170.902344 -271.359375 170.902344 -317.019531 171.554688 -362.027344 L 195.039062 -362.027344 C 265.488281 -362.027344 286.359375 -326.152344 286.359375 -226.347656 C 286.359375 -138.941406 262.878906 -90.019531 195.039062 -90.019531 Z M 171.554688 -90.019531 "/></g></g></g></svg>