<svg xmlns="http://www.w3.org/2000/svg" xmlns:xlink="http://www.w3.org/1999/xlink" width="1080" zoomAndPan="magnify" viewBox="0 0 810 809.999993" height="1080" preserveAspectRatio="xMidYMid meet" version="1.0"><defs><g/><clipPath id="80a63668a5"><path d="M 186.882812 66 L 623.339844 66 L 623.339844 543 L 186.882812 543 Z M 186.882812 66 " clip-rule="nonzero"/></clipPath><clipPath id="7df81fda6f"><path d="M 186.882812 230.484375 L 186.882812 379.210938 C 186.882812 411.121094 203.921875 440.617188 231.570312 456.570312 L 360.4375 530.929688 C 388.085938 546.882812 422.160156 546.882812 449.808594 530.929688 L 578.675781 456.570312 C 606.324219 440.617188 623.363281 411.121094 623.363281 379.210938 L 623.363281 230.484375 C 623.363281 198.574219 606.324219 169.082031 578.675781 153.125 L 449.808594 78.769531 C 422.160156 62.8125 388.085938 62.8125 360.4375 78.769531 L 231.570312 153.125 C 203.921875 169.089844 186.882812 198.574219 186.882812 230.484375 Z M 186.882812 230.484375 " clip-rule="nonzero"/></clipPath></defs><rect x="-81" width="972" fill="#ffffff" y="-80.999999" height="971.999992" fill-opacity="1"/><rect x="-81" width="972" fill="#fbcccc" y="-80.999999" height="971.999992" fill-opacity="1"/><g clip-path="url(#80a63668a5)"><g clip-path="url(#7df81fda6f)"><path fill="#36699f" d="M 186.882812 546.882812 L 186.882812 62.8125 L 623.339844 62.8125 L 623.339844 546.882812 Z M 186.882812 546.882812 " fill-opacity="1" fill-rule="nonzero"/></g></g><g fill="#ff00ff" fill-opacity="1"><g transform="translate(285.132383, 447.710067)"><g><path d="M 120.117188 0.394531 C 210.105469 0 247.367188 -44.796875 247.367188 -141.125 C 247.367188 -237.855469 210.105469 -274.722656 120.117188 -274.722656 L 64.21875 -274.722656 C 42.417969 -274.722656 30.523438 -262.433594 30.523438 -239.441406 C 30.523438 -119.324219 30.128906 -68.976562 29.730469 -32.902344 C 29.730469 -11.496094 41.625 0 63.429688 0 Z M 104.257812 -54.707031 C 103.863281 -68.183594 103.863281 -82.851562 103.863281 -97.125 C 103.863281 -164.914062 103.863281 -192.660156 104.257812 -220.015625 L 118.53125 -220.015625 C 161.34375 -220.015625 174.03125 -198.210938 174.03125 -137.558594 C 174.03125 -84.4375 159.757812 -54.707031 118.53125 -54.707031 Z M 104.257812 -54.707031 "/></g></g></g><g fill="#00ffff" fill-opacity="1"><g transform="translate(270.266152, 447.710067)"><g><path d="M 120.117188 0.394531 C 210.105469 0 247.367188 -44.796875 247.367188 -141.125 C 247.367188 -237.855469 210.105469 -274.722656 120.117188 -274.722656 L 64.21875 -274.722656 C 42.417969 -274.722656 30.523438 -262.433594 30.523438 -239.441406 C 30.523438 -119.324219 30.128906 -68.976562 29.730469 -32.902344 C 29.730469 -11.496094 41.625 0 63.429688 0 Z M 104.257812 -54.707031 C 103.863281 -68.183594 103.863281 -82.851562 103.863281 -97.125 C 103.863281 -164.914062 103.863281 -192.660156 104.257812 -220.015625 L 118.53125 -220.015625 C 161.34375 -220.015625 174.03125 -198.210938 174.03125 -137.558594 C 174.03125 -84.4375 159.757812 -54.707031 118.53125 -54.707031 Z M 104.257812 -54.707031 "/></g></g></g><g fill="#fbcccc" fill-opacity="1"><g transform="translate(277.699266, 447.710067)"><g><path d="M 120.117188 0.394531 C 210.105469 0 247.367188 -44.796875 247.367188 -141.125 C 247.367188 -237.855469 210.105469 -274.722656 120.117188 -274.722656 L 64.21875 -274.722656 C 42.417969 -274.722656 30.523438 -262.433594 30.523438 -239.441406 C 30.523438 -119.324219 30.128906 -68.976562 29.730469 -32.902344 C 29.730469 -11.496094 41.625 0 63.429688 0 Z M 104.257812 -54.707031 C 103.863281 -68.183594 103.863281 -82.851562 103.863281 -97.125 C 103.863281 -164.914062 103.863281 -192.660156 104.257812 -220.015625 L 118.53125 -220.015625 C 161.34375 -220.015625 174.03125 -198.210938 174.03125 -137.558594 C 174.03125 -84.4375 159.757812 -54.707031 118.53125 -54.707031 Z M 104.257812 -54.707031 "/></g></g></g><g fill="#7786a7" fill-opacity="1"><g transform="translate(47.869984, 721.50487)"><g><path d="M 7.796875 0 L 7.796875 -67.21875 L 26.78125 -67.21875 C 32.625 -67.21875 37.789062 -65.925781 42.28125 -63.34375 C 46.78125 -60.757812 50.253906 -57.082031 52.703125 -52.3125 C 55.148438 -47.539062 56.390625 -42.0625 56.421875 -35.875 L 56.421875 -31.578125 C 56.421875 -25.234375 55.195312 -19.675781 52.75 -14.90625 C 50.300781 -10.132812 46.804688 -6.472656 42.265625 -3.921875 C 37.722656 -1.367188 32.4375 -0.0625 26.40625 0 Z M 16.671875 -59.921875 L 16.671875 -7.25 L 25.984375 -7.25 C 32.816406 -7.25 38.132812 -9.367188 41.9375 -13.609375 C 45.738281 -17.859375 47.640625 -23.910156 47.640625 -31.765625 L 47.640625 -35.6875 C 47.640625 -43.320312 45.847656 -49.253906 42.265625 -53.484375 C 38.679688 -57.710938 33.59375 -59.859375 27 -59.921875 Z M 16.671875 -59.921875 "/></g></g></g><g fill="#7786a7" fill-opacity="1"><g transform="translate(109.867802, 721.50487)"><g><path d="M 44.921875 -17.546875 L 16.765625 -17.546875 L 10.4375 0 L 1.296875 0 L 26.953125 -67.21875 L 34.71875 -67.21875 L 60.4375 0 L 51.34375 0 Z M 19.4375 -24.84375 L 42.28125 -24.84375 L 30.84375 -56.28125 Z M 19.4375 -24.84375 "/></g></g></g><g fill="#7786a7" fill-opacity="1"><g transform="translate(171.542475, 721.50487)"><g><path d="M 54.25 -59.921875 L 32.640625 -59.921875 L 32.640625 0 L 23.828125 0 L 23.828125 -59.921875 L 2.265625 -59.921875 L 2.265625 -67.21875 L 54.25 -67.21875 Z M 54.25 -59.921875 "/></g></g></g><g fill="#7786a7" fill-opacity="1"><g transform="translate(227.954488, 721.50487)"><g><path d="M 44.921875 -17.546875 L 16.765625 -17.546875 L 10.4375 0 L 1.296875 0 L 26.953125 -67.21875 L 34.71875 -67.21875 L 60.4375 0 L 51.34375 0 Z M 19.4375 -24.84375 L 42.28125 -24.84375 L 30.84375 -56.28125 Z M 19.4375 -24.84375 "/></g></g></g><g fill="#7786a7" fill-opacity="1"><g transform="translate(289.62916, 721.50487)"><g/></g></g><g fill="#7786a7" fill-opacity="1"><g transform="translate(313.034145, 721.50487)"><g><path d="M 57.25 -21.328125 C 56.414062 -14.222656 53.789062 -8.738281 49.375 -4.875 C 44.957031 -1.007812 39.085938 0.921875 31.765625 0.921875 C 23.816406 0.921875 17.453125 -1.921875 12.671875 -7.609375 C 7.890625 -13.304688 5.5 -20.925781 5.5 -30.46875 L 5.5 -36.9375 C 5.5 -43.175781 6.613281 -48.664062 8.84375 -53.40625 C 11.070312 -58.144531 14.234375 -61.785156 18.328125 -64.328125 C 22.421875 -66.867188 27.160156 -68.140625 32.546875 -68.140625 C 39.679688 -68.140625 45.40625 -66.144531 49.71875 -62.15625 C 54.03125 -58.175781 56.539062 -52.660156 57.25 -45.609375 L 48.328125 -45.609375 C 47.566406 -50.960938 45.898438 -54.835938 43.328125 -57.234375 C 40.753906 -59.640625 37.160156 -60.84375 32.546875 -60.84375 C 26.878906 -60.84375 22.4375 -58.75 19.21875 -54.5625 C 16.007812 -50.382812 14.40625 -44.429688 14.40625 -36.703125 L 14.40625 -30.1875 C 14.40625 -22.894531 15.925781 -17.09375 18.96875 -12.78125 C 22.019531 -8.476562 26.285156 -6.328125 31.765625 -6.328125 C 36.679688 -6.328125 40.457031 -7.441406 43.09375 -9.671875 C 45.726562 -11.898438 47.472656 -15.785156 48.328125 -21.328125 Z M 57.25 -21.328125 "/></g></g></g><g fill="#7786a7" fill-opacity="1"><g transform="translate(374.570326, 721.50487)"><g><path d="M 44.921875 -17.546875 L 16.765625 -17.546875 L 10.4375 0 L 1.296875 0 L 26.953125 -67.21875 L 34.71875 -67.21875 L 60.4375 0 L 51.34375 0 Z M 19.4375 -24.84375 L 42.28125 -24.84375 L 30.84375 -56.28125 Z M 19.4375 -24.84375 "/></g></g></g><g fill="#7786a7" fill-opacity="1"><g transform="translate(436.244978, 721.50487)"><g><path d="M 54.25 -59.921875 L 32.640625 -59.921875 L 32.640625 0 L 23.828125 0 L 23.828125 -59.921875 L 2.265625 -59.921875 L 2.265625 -67.21875 L 54.25 -67.21875 Z M 54.25 -59.921875 "/></g></g></g><g fill="#7786a7" fill-opacity="1"><g transform="translate(492.656991, 721.50487)"><g><path d="M 45.796875 -31.0625 L 16.671875 -31.0625 L 16.671875 -7.25 L 50.5 -7.25 L 50.5 0 L 7.796875 0 L 7.796875 -67.21875 L 50.046875 -67.21875 L 50.046875 -59.921875 L 16.671875 -59.921875 L 16.671875 -38.3125 L 45.796875 -38.3125 Z M 45.796875 -31.0625 "/></g></g></g><g fill="#7786a7" fill-opacity="1"><g transform="translate(546.391512, 721.50487)"><g><path d="M 32.453125 -27.1875 L 16.671875 -27.1875 L 16.671875 0 L 7.75 0 L 7.75 -67.21875 L 30 -67.21875 C 37.570312 -67.21875 43.394531 -65.492188 47.46875 -62.046875 C 51.550781 -58.597656 53.59375 -53.582031 53.59375 -47 C 53.59375 -42.8125 52.460938 -39.160156 50.203125 -36.046875 C 47.941406 -32.941406 44.796875 -30.617188 40.765625 -29.078125 L 56.546875 -0.546875 L 56.546875 0 L 47.046875 0 Z M 16.671875 -34.4375 L 30.28125 -34.4375 C 34.6875 -34.4375 38.1875 -35.570312 40.78125 -37.84375 C 43.382812 -40.125 44.6875 -43.175781 44.6875 -47 C 44.6875 -51.15625 43.445312 -54.335938 40.96875 -56.546875 C 38.488281 -58.765625 34.910156 -59.890625 30.234375 -59.921875 L 16.671875 -59.921875 Z M 16.671875 -34.4375 "/></g></g></g><g fill="#7786a7" fill-opacity="1"><g transform="translate(604.603931, 721.50487)"><g><path d="M 17.3125 0 L 8.453125 0 L 8.453125 -67.21875 L 17.3125 -67.21875 Z M 17.3125 0 "/></g></g></g><g fill="#7786a7" fill-opacity="1"><g transform="translate(630.317077, 721.50487)"><g><path d="M 59.46875 0 L 50.546875 0 L 16.71875 -51.796875 L 16.71875 0 L 7.796875 0 L 7.796875 -67.21875 L 16.71875 -67.21875 L 50.640625 -15.1875 L 50.640625 -67.21875 L 59.46875 -67.21875 Z M 59.46875 0 "/></g></g></g><g fill="#7786a7" fill-opacity="1"><g transform="translate(697.716046, 721.50487)"><g><path d="M 57.4375 -8.8125 C 55.15625 -5.550781 51.972656 -3.113281 47.890625 -1.5 C 43.816406 0.113281 39.070312 0.921875 33.65625 0.921875 C 28.175781 0.921875 23.3125 -0.359375 19.0625 -2.921875 C 14.820312 -5.492188 11.535156 -9.148438 9.203125 -13.890625 C 6.878906 -18.628906 5.6875 -24.125 5.625 -30.375 L 5.625 -36.234375 C 5.625 -46.359375 7.988281 -54.207031 12.71875 -59.78125 C 17.445312 -65.351562 24.085938 -68.140625 32.640625 -68.140625 C 39.660156 -68.140625 45.304688 -66.347656 49.578125 -62.765625 C 53.859375 -59.179688 56.476562 -54.09375 57.4375 -47.5 L 48.5625 -47.5 C 46.90625 -56.394531 41.613281 -60.84375 32.6875 -60.84375 C 26.75 -60.84375 22.25 -58.753906 19.1875 -54.578125 C 16.125 -50.410156 14.578125 -44.375 14.546875 -36.46875 L 14.546875 -30.984375 C 14.546875 -23.441406 16.269531 -17.445312 19.71875 -13 C 23.164062 -8.550781 27.828125 -6.328125 33.703125 -6.328125 C 37.023438 -6.328125 39.929688 -6.695312 42.421875 -7.4375 C 44.921875 -8.175781 46.984375 -9.421875 48.609375 -11.171875 L 48.609375 -26.265625 L 33.046875 -26.265625 L 33.046875 -33.46875 L 57.4375 -33.46875 Z M 57.4375 -8.8125 "/></g></g></g></svg>