<svg xmlns="http://www.w3.org/2000/svg" xmlns:xlink="http://www.w3.org/1999/xlink" width="1080" zoomAndPan="magnify" viewBox="0 0 810 809.999993" height="1080" preserveAspectRatio="xMidYMid meet" version="1.0"><defs><g/><clipPath id="d37ea6c16c"><path d="M 333.28125 293 L 476.792969 293 L 476.792969 451 L 333.28125 451 Z M 333.28125 293 " clip-rule="nonzero"/></clipPath><clipPath id="4ec62dfa97"><path d="M 333.28125 347.617188 L 333.28125 396.519531 C 333.28125 407.011719 338.882812 416.710938 347.976562 421.957031 L 390.347656 446.40625 C 399.4375 451.652344 410.640625 451.652344 419.734375 446.40625 L 462.105469 421.957031 C 471.195312 416.710938 476.796875 407.011719 476.796875 396.519531 L 476.796875 347.617188 C 476.796875 337.125 471.195312 327.429688 462.105469 322.183594 L 419.734375 297.734375 C 410.640625 292.488281 399.4375 292.488281 390.347656 297.734375 L 347.976562 322.183594 C 338.882812 327.433594 333.28125 337.125 333.28125 347.617188 Z M 333.28125 347.617188 " clip-rule="nonzero"/></clipPath></defs><rect x="-81" width="972" fill="#ffffff" y="-80.999999" height="971.999992" fill-opacity="1"/><rect x="-81" width="972" fill="#fbcccc" y="-80.999999" height="971.999992" fill-opacity="1"/><g clip-path="url(#d37ea6c16c)"><g clip-path="url(#4ec62dfa97)"><path fill="#36699f" d="M 333.28125 451.652344 L 333.28125 292.488281 L 476.792969 292.488281 L 476.792969 451.652344 Z M 333.28125 451.652344 " fill-opacity="1" fill-rule="nonzero"/></g></g><g fill="#ff00ff" fill-opacity="1"><g transform="translate(365.5869, 419.043263)"><g><path d="M 39.496094 0.128906 C 69.082031 0 81.335938 -14.730469 81.335938 -46.402344 C 81.335938 -78.207031 69.082031 -90.328125 39.496094 -90.328125 L 21.117188 -90.328125 C 13.945312 -90.328125 10.035156 -86.289062 10.035156 -78.730469 C 10.035156 -39.234375 9.90625 -22.679688 9.777344 -10.820312 C 9.777344 -3.78125 13.6875 0 20.855469 0 Z M 34.28125 -17.988281 C 34.152344 -22.417969 34.152344 -27.242188 34.152344 -31.933594 C 34.152344 -54.222656 34.152344 -63.347656 34.28125 -72.34375 L 38.972656 -72.34375 C 53.050781 -72.34375 57.222656 -65.171875 57.222656 -45.230469 C 57.222656 -27.765625 52.53125 -17.988281 38.972656 -17.988281 Z M 34.28125 -17.988281 "/></g></g></g><g fill="#00ffff" fill-opacity="1"><g transform="translate(360.698834, 419.043263)"><g><path d="M 39.496094 0.128906 C 69.082031 0 81.335938 -14.730469 81.335938 -46.402344 C 81.335938 -78.207031 69.082031 -90.328125 39.496094 -90.328125 L 21.117188 -90.328125 C 13.945312 -90.328125 10.035156 -86.289062 10.035156 -78.730469 C 10.035156 -39.234375 9.90625 -22.679688 9.777344 -10.820312 C 9.777344 -3.78125 13.6875 0 20.855469 0 Z M 34.28125 -17.988281 C 34.152344 -22.417969 34.152344 -27.242188 34.152344 -31.933594 C 34.152344 -54.222656 34.152344 -63.347656 34.28125 -72.34375 L 38.972656 -72.34375 C 53.050781 -72.34375 57.222656 -65.171875 57.222656 -45.230469 C 57.222656 -27.765625 52.53125 -17.988281 38.972656 -17.988281 Z M 34.28125 -17.988281 "/></g></g></g><g fill="#fbcccc" fill-opacity="1"><g transform="translate(363.142867, 419.043263)"><g><path d="M 39.496094 0.128906 C 69.082031 0 81.335938 -14.730469 81.335938 -46.402344 C 81.335938 -78.207031 69.082031 -90.328125 39.496094 -90.328125 L 21.117188 -90.328125 C 13.945312 -90.328125 10.035156 -86.289062 10.035156 -78.730469 C 10.035156 -39.234375 9.90625 -22.679688 9.777344 -10.820312 C 9.777344 -3.78125 13.6875 0 20.855469 0 Z M 34.28125 -17.988281 C 34.152344 -22.417969 34.152344 -27.242188 34.152344 -31.933594 C 34.152344 -54.222656 34.152344 -63.347656 34.28125 -72.34375 L 38.972656 -72.34375 C 53.050781 -72.34375 57.222656 -65.171875 57.222656 -45.230469 C 57.222656 -27.765625 52.53125 -17.988281 38.972656 -17.988281 Z M 34.28125 -17.988281 "/></g></g></g><g fill="#7786a7" fill-opacity="1"><g transform="translate(287.573862, 509.068276)"><g><path d="M 2.5625 0 L 2.5625 -22.109375 L 8.8125 -22.109375 C 10.726562 -22.109375 12.425781 -21.679688 13.90625 -20.828125 C 15.382812 -19.984375 16.523438 -18.773438 17.328125 -17.203125 C 18.128906 -15.628906 18.535156 -13.828125 18.546875 -11.796875 L 18.546875 -10.390625 C 18.546875 -8.296875 18.144531 -6.460938 17.34375 -4.890625 C 16.539062 -3.328125 15.390625 -2.125 13.890625 -1.28125 C 12.398438 -0.445312 10.664062 -0.0195312 8.6875 0 Z M 5.484375 -19.703125 L 5.484375 -2.390625 L 8.546875 -2.390625 C 10.796875 -2.390625 12.546875 -3.085938 13.796875 -4.484375 C 15.046875 -5.878906 15.671875 -7.867188 15.671875 -10.453125 L 15.671875 -11.734375 C 15.671875 -14.242188 15.078125 -16.191406 13.890625 -17.578125 C 12.710938 -18.972656 11.039062 -19.679688 8.875 -19.703125 Z M 5.484375 -19.703125 "/></g></g></g><g fill="#7786a7" fill-opacity="1"><g transform="translate(307.959054, 509.068276)"><g><path d="M 14.765625 -5.765625 L 5.515625 -5.765625 L 3.4375 0 L 0.421875 0 L 8.859375 -22.109375 L 11.421875 -22.109375 L 19.875 0 L 16.890625 0 Z M 6.390625 -8.171875 L 13.90625 -8.171875 L 10.140625 -18.5 Z M 6.390625 -8.171875 "/></g></g></g><g fill="#7786a7" fill-opacity="1"><g transform="translate(328.237995, 509.068276)"><g><path d="M 17.84375 -19.703125 L 10.734375 -19.703125 L 10.734375 0 L 7.828125 0 L 7.828125 -19.703125 L 0.75 -19.703125 L 0.75 -22.109375 L 17.84375 -22.109375 Z M 17.84375 -19.703125 "/></g></g></g><g fill="#7786a7" fill-opacity="1"><g transform="translate(346.786546, 509.068276)"><g><path d="M 14.765625 -5.765625 L 5.515625 -5.765625 L 3.4375 0 L 0.421875 0 L 8.859375 -22.109375 L 11.421875 -22.109375 L 19.875 0 L 16.890625 0 Z M 6.390625 -8.171875 L 13.90625 -8.171875 L 10.140625 -18.5 Z M 6.390625 -8.171875 "/></g></g></g><g fill="#7786a7" fill-opacity="1"><g transform="translate(367.065486, 509.068276)"><g/></g></g><g fill="#7786a7" fill-opacity="1"><g transform="translate(374.761162, 509.068276)"><g><path d="M 18.828125 -7.015625 C 18.554688 -4.671875 17.691406 -2.863281 16.234375 -1.59375 C 14.785156 -0.332031 12.859375 0.296875 10.453125 0.296875 C 7.835938 0.296875 5.742188 -0.632812 4.171875 -2.5 C 2.597656 -4.375 1.8125 -6.878906 1.8125 -10.015625 L 1.8125 -12.140625 C 1.8125 -14.203125 2.175781 -16.007812 2.90625 -17.5625 C 3.644531 -19.125 4.6875 -20.320312 6.03125 -21.15625 C 7.375 -21.988281 8.929688 -22.40625 10.703125 -22.40625 C 13.046875 -22.40625 14.925781 -21.75 16.34375 -20.4375 C 17.769531 -19.132812 18.597656 -17.320312 18.828125 -15 L 15.890625 -15 C 15.640625 -16.757812 15.09375 -18.035156 14.25 -18.828125 C 13.40625 -19.617188 12.222656 -20.015625 10.703125 -20.015625 C 8.835938 -20.015625 7.375 -19.320312 6.3125 -17.9375 C 5.257812 -16.5625 4.734375 -14.601562 4.734375 -12.0625 L 4.734375 -9.921875 C 4.734375 -7.523438 5.234375 -5.617188 6.234375 -4.203125 C 7.242188 -2.785156 8.648438 -2.078125 10.453125 -2.078125 C 12.066406 -2.078125 13.304688 -2.441406 14.171875 -3.171875 C 15.035156 -3.910156 15.609375 -5.191406 15.890625 -7.015625 Z M 18.828125 -7.015625 "/></g></g></g><g fill="#7786a7" fill-opacity="1"><g transform="translate(394.994566, 509.068276)"><g><path d="M 14.765625 -5.765625 L 5.515625 -5.765625 L 3.4375 0 L 0.421875 0 L 8.859375 -22.109375 L 11.421875 -22.109375 L 19.875 0 L 16.890625 0 Z M 6.390625 -8.171875 L 13.90625 -8.171875 L 10.140625 -18.5 Z M 6.390625 -8.171875 "/></g></g></g><g fill="#7786a7" fill-opacity="1"><g transform="translate(415.273499, 509.068276)"><g><path d="M 17.84375 -19.703125 L 10.734375 -19.703125 L 10.734375 0 L 7.828125 0 L 7.828125 -19.703125 L 0.75 -19.703125 L 0.75 -22.109375 L 17.84375 -22.109375 Z M 17.84375 -19.703125 "/></g></g></g><g fill="#7786a7" fill-opacity="1"><g transform="translate(433.82205, 509.068276)"><g><path d="M 15.0625 -10.21875 L 5.484375 -10.21875 L 5.484375 -2.390625 L 16.609375 -2.390625 L 16.609375 0 L 2.5625 0 L 2.5625 -22.109375 L 16.453125 -22.109375 L 16.453125 -19.703125 L 5.484375 -19.703125 L 5.484375 -12.59375 L 15.0625 -12.59375 Z M 15.0625 -10.21875 "/></g></g></g><g fill="#7786a7" fill-opacity="1"><g transform="translate(451.490229, 509.068276)"><g><path d="M 10.671875 -8.9375 L 5.484375 -8.9375 L 5.484375 0 L 2.546875 0 L 2.546875 -22.109375 L 9.875 -22.109375 C 12.363281 -22.109375 14.273438 -21.539062 15.609375 -20.40625 C 16.953125 -19.269531 17.625 -17.617188 17.625 -15.453125 C 17.625 -14.078125 17.25 -12.878906 16.5 -11.859375 C 15.757812 -10.835938 14.726562 -10.070312 13.40625 -9.5625 L 18.59375 -0.1875 L 18.59375 0 L 15.46875 0 Z M 5.484375 -11.328125 L 9.953125 -11.328125 C 11.398438 -11.328125 12.550781 -11.703125 13.40625 -12.453125 C 14.269531 -13.203125 14.703125 -14.203125 14.703125 -15.453125 C 14.703125 -16.816406 14.289062 -17.863281 13.46875 -18.59375 C 12.65625 -19.320312 11.476562 -19.691406 9.9375 -19.703125 L 5.484375 -19.703125 Z M 5.484375 -11.328125 "/></g></g></g><g fill="#7786a7" fill-opacity="1"><g transform="translate(470.630763, 509.068276)"><g><path d="M 5.6875 0 L 2.78125 0 L 2.78125 -22.109375 L 5.6875 -22.109375 Z M 5.6875 0 "/></g></g></g><g fill="#7786a7" fill-opacity="1"><g transform="translate(479.085374, 509.068276)"><g><path d="M 19.5625 0 L 16.625 0 L 5.5 -17.03125 L 5.5 0 L 2.5625 0 L 2.5625 -22.109375 L 5.5 -22.109375 L 16.65625 -5 L 16.65625 -22.109375 L 19.5625 -22.109375 Z M 19.5625 0 "/></g></g></g><g fill="#7786a7" fill-opacity="1"><g transform="translate(501.246491, 509.068276)"><g><path d="M 18.890625 -2.90625 C 18.140625 -1.832031 17.09375 -1.03125 15.75 -0.5 C 14.40625 0.03125 12.84375 0.296875 11.0625 0.296875 C 9.257812 0.296875 7.660156 -0.125 6.265625 -0.96875 C 4.867188 -1.8125 3.785156 -3.007812 3.015625 -4.5625 C 2.253906 -6.125 1.867188 -7.929688 1.859375 -9.984375 L 1.859375 -11.921875 C 1.859375 -15.242188 2.632812 -17.820312 4.1875 -19.65625 C 5.738281 -21.488281 7.921875 -22.40625 10.734375 -22.40625 C 13.046875 -22.40625 14.90625 -21.816406 16.3125 -20.640625 C 17.71875 -19.460938 18.578125 -17.789062 18.890625 -15.625 L 15.96875 -15.625 C 15.425781 -18.550781 13.6875 -20.015625 10.75 -20.015625 C 8.789062 -20.015625 7.304688 -19.328125 6.296875 -17.953125 C 5.296875 -16.578125 4.789062 -14.59375 4.78125 -12 L 4.78125 -10.1875 C 4.78125 -7.707031 5.347656 -5.734375 6.484375 -4.265625 C 7.617188 -2.804688 9.148438 -2.078125 11.078125 -2.078125 C 12.171875 -2.078125 13.128906 -2.195312 13.953125 -2.4375 C 14.773438 -2.6875 15.453125 -3.097656 15.984375 -3.671875 L 15.984375 -8.640625 L 10.875 -8.640625 L 10.875 -11 L 18.890625 -11 Z M 18.890625 -2.90625 "/></g></g></g></svg>